<!DOCTYPE svg PUBLIC "-//W3C//DTD SVG 1.1//EN" "http://www.w3.org/Graphics/SVG/1.1/DTD/svg11.dtd">
<!-- Uploaded to: SVG Repo, www.svgrepo.com, Transformed by: SVG Repo Mixer Tools -->
<svg fill="#000000" width="800px" height="800px" viewBox="0 0 24 24" xmlns="http://www.w3.org/2000/svg">
<g id="SVGRepo_bgCarrier" stroke-width="0"/>
<g id="SVGRepo_tracerCarrier" stroke-linecap="round" stroke-linejoin="round"/>
<g id="SVGRepo_iconCarrier"> <g data-name="Layer 2"> <g data-name="arrow-upward"> <rect width="24" height="24" transform="rotate(180 12 12)" opacity="0"/> <path d="M5.23 10.64a1 1 0 0 0 1.41.13L11 7.14V19a1 1 0 0 0 2 0V7.14l4.36 3.63a1 1 0 1 0 1.28-1.54l-6-5-.15-.09-.13-.07a1 1 0 0 0-.72 0l-.13.07-.15.09-6 5a1 1 0 0 0-.13 1.41z"/> </g> </g> </g>
</svg>